<?xml version="1.0" standalone="no"?>
<!DOCTYPE svg PUBLIC "-//W3C//DTD SVG 20010904//EN"
 "http://www.w3.org/TR/2001/REC-SVG-20010904/DTD/svg10.dtd">
<svg version="1.0" xmlns="http://www.w3.org/2000/svg"
 width="1080.000000pt" height="1080.000000pt" viewBox="0 0 1080.000000 1080.000000"
 preserveAspectRatio="xMidYMid meet">
<metadata>
Created by potrace 1.14, written by Peter Selinger 2001-2017
</metadata>
<g transform="translate(0.000000,1080.000000) scale(0.100000,-0.100000)"
fill="#000000" stroke="none">
<path d="M0 5400 l0 -5400 5400 0 5400 0 0 5400 0 5400 -5400 0 -5400 0 0
-5400z m4782 3973 c54 -24 133 -94 155 -136 13 -25 487 -1106 895 -2040 l131
-299 -36 -86 c-46 -111 -129 -312 -780 -1872 -294 -707 -546 -1312 -560 -1345
-13 -33 -156 -375 -317 -760 -161 -385 -297 -715 -302 -733 l-9 -32 -1162 2
-1162 3 -43 23 c-67 36 -129 98 -159 161 -24 48 -28 68 -28 141 0 85 1 86 84
275 117 267 400 912 928 2120 250 572 494 1130 543 1240 48 110 268 614 490
1120 784 1794 853 1950 885 2021 51 111 121 178 218 210 58 19 170 12 229 -13z
m2321 -1663 c65 -24 129 -77 161 -133 14 -23 69 -150 124 -282 131 -315 1009
-2422 1217 -2920 89 -214 304 -727 476 -1140 l313 -750 1 -85 c0 -73 -4 -93
-28 -141 -30 -63 -92 -125 -159 -161 l-43 -23 -2381 -3 -2381 -2 92 222 c280
676 448 1080 618 1488 104 250 200 480 212 510 12 30 300 721 640 1535 340
814 642 1540 672 1613 73 176 137 247 253 283 50 15 158 10 213 -11z"/>
</g>
</svg>
